<?xml version="1.0" encoding="utf-8"?>
<!-- Generator: Adobe Illustrator 24.0.2, SVG Export Plug-In . SVG Version: 6.00 Build 0)  -->
<svg version="1.1" id="Layer_1" xmlns="http://www.w3.org/2000/svg" xmlns:xlink="http://www.w3.org/1999/xlink" x="0px" y="0px"
	 viewBox="0 0 429 485" style="enable-background:new 0 0 429 485;" xml:space="preserve">
<style type="text/css">
	.st0{fill:#00d4ff;}
</style>
<g>
	<g>
		<path class="st0" d="M234.52,407.27c0-110.3,0-219.23,0-329.42c-5.34,2.95-10.2,5.28-14.66,8.21c-3.24,2.13-5.78,2.3-9.01,0.06
			c-3.93-2.73-8.21-4.94-13.23-7.91c-0.29,2.83-0.65,4.7-0.65,6.56c0.13,77.49,0.65,154.98,0.24,232.47
			c-0.14,26.38-11.59,48.22-33.93,62.89c-19.06,12.52-38.99,23.7-58.48,35.56c-2.46,1.5-4.32,1.38-6.8-0.13
			c-26-15.91-52.05-31.75-78.17-47.47c-7.23-4.35-11.94-10.13-14.11-18.45c-3.52-13.46-5.67-27.04-5.64-40.96
			c0.03-14.33-0.16-28.67,0.14-42.99c0.05-2.15,1.7-5.24,3.52-6.22c17.62-9.43,35.42-18.5,53.19-27.65
			c0.55-0.28,1.25-0.29,2.63-0.58c0,2.24,0,4.15,0,6.06c0.05,21-0.12,42,0.2,62.99c0.33,21.43,18.05,40.31,38.17,41.23
			c21.18,0.97,38.61-16.74,38.67-39.62c0.11-41.33,0.04-82.66,0.05-123.99c0.01-17,0.06-34,0.03-50.99c0-2.23-0.41-4.46-0.76-7.9
			c-45.26,26.19-89.51,51.8-134.61,77.9c-0.19-2.85-0.4-4.43-0.4-6.02c0-19.16,0.18-38.33-0.07-57.49
			c-0.06-5.03,1.85-8.07,5.96-10.51c38.35-22.84,76.64-45.8,114.98-68.65c29.05-17.31,58.21-34.41,87.17-51.86
			c4.64-2.8,8.05-2.75,12.66,0.1c22.38,13.84,44.92,27.42,67.57,40.81c5.14,3.04,7.34,6.49,7.31,12.69
			c-0.18,47.49,0.08,94.99,0,142.48c-0.01,4.68,1.08,6.28,6.03,6.21c19.33-0.29,38.66-0.26,57.99-0.01
			c4.75,0.06,6.33-1.26,6.31-6.12c-0.14-33.83-0.01-67.66,0.03-101.49c0-1.97,0-3.95,0-6.66c1.76,0.72,2.98,1.05,4.03,1.67
			c17.36,10.24,34.66,20.58,52.06,30.73c4.1,2.39,6.09,5.21,6.07,10.29c-0.15,43.49-0.01,86.98,0.02,130.47
			c0.02,29.5-0.08,58.99,0.08,88.49c0.02,4.18-1.32,6.62-4.97,8.74c-17.59,10.17-35.01,20.63-52.5,30.96
			c-1.24,0.73-2.59,1.29-4.84,2.39c0-2.7,0-4.6,0-6.5c0.02-38-0.04-75.99,0.15-113.99c0.02-4.8-1.36-6.26-6.19-6.2
			c-19.49,0.24-39,0.22-58.49-0.04c-4.66-0.06-5.88,1.33-5.87,5.91c0.17,53.16,0.08,106.32,0.24,159.48
			c0.01,4.02-1.25,6.17-4.71,8.2c-23.84,14.01-47.6,28.15-71.2,42.55c-3.98,2.43-6.75,2.47-10.71,0.05
			c-22.02-13.47-44.24-26.62-66.37-39.92c-1.5-0.9-2.84-2.06-4.82-3.51c1.78-1.31,2.87-2.27,4.11-2.99
			c22.31-13,44.68-25.88,66.9-39.04c3.43-2.03,5.86-1.76,9,0.23C223.59,401.4,228.59,403.95,234.52,407.27z M196.55,42.11
			c-0.08,10.49,8.44,19.32,18.75,19.45c10.21,0.12,19.32-8.76,19.42-18.94c0.1-10.6-8.62-19.18-19.52-19.21
			C204.72,23.38,196.63,31.49,196.55,42.11z M233.97,443.03c0.09-11.08-8.06-19.33-19.07-19.29c-10.07,0.03-18,8.14-18.17,18.58
			c-0.17,10.26,7.95,18.74,17.94,18.75C225.46,461.07,233.89,453.2,233.97,443.03z"/>
	</g>
</g>
</svg>
