<?xml version="1.0" encoding="utf-8"?>
<!-- Generator: Adobe Illustrator 24.0.2, SVG Export Plug-In . SVG Version: 6.00 Build 0)  -->
<svg version="1.1" id="Layer_1" xmlns="http://www.w3.org/2000/svg" xmlns:xlink="http://www.w3.org/1999/xlink" x="0px" y="0px"
	 viewBox="0 0 20 20" style="enable-background:new 0 0 20 20;" xml:space="preserve">
<path d="M12.53,1.15c-0.59-0.17-1.2,0.17-1.37,0.76L6.71,17.47c-0.17,0.59,0.17,1.2,0.76,1.37s1.2-0.17,1.37-0.76l4.44-15.55
	C13.46,1.94,13.12,1.32,12.53,1.15z M14.77,5.88c-0.43,0.43-0.43,1.14,0,1.57L17.32,10l-2.55,2.55c-0.43,0.43-0.43,1.14,0,1.57
	c0.43,0.43,1.14,0.43,1.57,0l3.33-3.33c0.43-0.43,0.43-1.14,0-1.57l-3.33-3.33C15.91,5.45,15.2,5.45,14.77,5.88L14.77,5.88z
	 M5.23,5.88c-0.43-0.43-1.14-0.43-1.57,0L0.33,9.21c-0.43,0.43-0.43,1.14,0,1.57l3.33,3.33c0.43,0.43,1.14,0.43,1.57,0
	c0.43-0.43,0.43-1.14,0-1.57L2.68,10l2.54-2.55C5.66,7.02,5.66,6.31,5.23,5.88L5.23,5.88z"/>
</svg>
