<?xml version="1.0" encoding="utf-8"?>
<!-- Generator: Adobe Illustrator 24.0.2, SVG Export Plug-In . SVG Version: 6.00 Build 0)  -->
<svg version="1.1" id="Layer_1" xmlns="http://www.w3.org/2000/svg" xmlns:xlink="http://www.w3.org/1999/xlink" x="0px" y="0px"
	 viewBox="0 0 20 20" style="enable-background:new 0 0 20 20;" xml:space="preserve">
<style type="text/css">
	.st0{fill:#EB4D34;}
</style>
<path d="M-72.55,156.54c0,2-2.3,3.6-5.2,3.6c-3.3,0.3-5.6-1.3-5.6-3.6c0-2,2.3-3.6,5.2-3.6C-75.15,152.64-72.55,154.24-72.55,156.54
	z M-103.65,152.04c-0.7,2,1.3,4.3,4.3,4.9c2.6,1,5.6,0,6.2-2c0.6-2-1.3-4.3-4.3-5.2C-100.05,149.04-102.95,150.04-103.65,152.04z
	 M-59.45,150.34c-2.9,0.7-4.9,2.6-4.6,4.9c0.3,2,2.9,3.3,5.9,2.6c2.9-0.7,4.9-2.6,4.6-4.6C-53.85,151.34-56.55,150.04-59.45,150.34z
	 M6.35-232.86c-138.7,0-244.8,105.3-244.8,244c0,110.9,69.8,205.8,169.5,239.2c12.8,2.3,17.3-5.6,17.3-12.1c0-6.2-0.3-40.4-0.3-61.4
	c0,0-70,15-84.7-29.8c0,0-11.4-29.1-27.8-36.6c0,0-22.9-15.7,1.6-15.4c0,0,24.9,2,38.6,25.8c21.9,38.6,58.6,27.5,72.9,20.9
	c2.3-16,8.8-27.1,16-33.7c-55.9-6.2-112.3-14.3-112.3-110.5c0-27.5,7.6-41.3,23.6-58.9c-2.6-6.5-11.1-33.3,2.6-67.9
	c20.9-6.5,69,27,69,27c20-5.6,41.5-8.5,62.8-8.5c21.3,0,42.8,2.9,62.8,8.5c0,0,48.1-33.6,69-27c13.7,34.7,5.2,61.4,2.6,67.9
	c16,17.7,25.8,31.5,25.8,58.9c0,96.5-58.9,104.2-114.8,110.5c9.2,7.9,17,22.9,17,46.4c0,33.7-0.3,75.4-0.3,83.6
	c0,6.5,4.6,14.4,17.3,12.1c100-33.2,167.8-128.1,167.8-239C257.55-127.56,145.05-232.86,6.35-232.86z M-141.25,112.04
	c-1.3,1-1,3.3,0.7,5.2c1.6,1.6,3.9,2.3,5.2,1c1.3-1,1-3.3-0.7-5.2C-137.65,111.44-139.95,110.74-141.25,112.04z M-152.05,103.94
	c-0.7,1.3,0.3,2.9,2.3,3.9c1.6,1,3.6,0.7,4.3-0.7c0.7-1.3-0.3-2.9-2.3-3.9C-149.75,102.64-151.35,102.94-152.05,103.94z
	 M-119.65,139.54c-1.6,1.3-1,4.3,1.3,6.2c2.3,2.3,5.2,2.6,6.5,1c1.3-1.3,0.7-4.3-1.3-6.2
	C-115.35,138.24-118.35,137.94-119.65,139.54z M-131.05,124.84c-1.6,1-1.6,3.6,0,5.9c1.6,2.3,4.3,3.3,5.6,2.3c1.6-1.3,1.6-3.9,0-6.2
	C-126.85,124.54-129.45,123.54-131.05,124.84z"/>
<path class="st0" d="M6.69,15.95c0,0.08-0.09,0.15-0.21,0.15c-0.13,0.01-0.23-0.05-0.23-0.15c0-0.08,0.09-0.15,0.21-0.15
	C6.58,15.79,6.69,15.86,6.69,15.95z M5.44,15.77c-0.03,0.08,0.05,0.17,0.17,0.2c0.1,0.04,0.23,0,0.25-0.08
	c0.02-0.08-0.05-0.17-0.17-0.21C5.58,15.65,5.46,15.69,5.44,15.77z M7.22,15.7c-0.12,0.03-0.2,0.1-0.19,0.2
	c0.01,0.08,0.12,0.13,0.24,0.1c0.12-0.03,0.2-0.1,0.19-0.19C7.44,15.74,7.33,15.69,7.22,15.7z M9.87,0.25C4.28,0.25,0,4.5,0,10.09
	c0,4.47,2.81,8.3,6.83,9.65c0.52,0.09,0.7-0.23,0.7-0.49c0-0.25-0.01-1.63-0.01-2.48c0,0-2.82,0.6-3.42-1.2c0,0-0.46-1.17-1.12-1.48
	c0,0-0.92-0.63,0.06-0.62c0,0,1,0.08,1.56,1.04c0.88,1.56,2.36,1.11,2.94,0.84C7.64,14.71,7.9,14.26,8.19,14
	c-2.25-0.25-4.53-0.58-4.53-4.46c0-1.11,0.31-1.67,0.95-2.38c-0.1-0.26-0.45-1.34,0.1-2.74C5.56,4.17,7.5,5.52,7.5,5.52
	c0.81-0.23,1.67-0.34,2.53-0.34c0.86,0,1.73,0.12,2.53,0.34c0,0,1.94-1.35,2.78-1.09c0.55,1.4,0.21,2.48,0.1,2.74
	c0.65,0.71,1.04,1.27,1.04,2.38c0,3.89-2.38,4.2-4.63,4.46c0.37,0.32,0.69,0.92,0.69,1.87c0,1.36-0.01,3.04-0.01,3.37
	c0,0.26,0.19,0.58,0.7,0.49c4.03-1.34,6.77-5.17,6.77-9.64C20,4.5,15.46,0.25,9.87,0.25z M3.92,14.16
	c-0.05,0.04-0.04,0.13,0.03,0.21c0.06,0.06,0.16,0.09,0.21,0.04c0.05-0.04,0.04-0.13-0.03-0.21C4.06,14.13,3.97,14.1,3.92,14.16z
	 M3.48,13.83c-0.03,0.05,0.01,0.12,0.09,0.16c0.06,0.04,0.15,0.03,0.17-0.03c0.03-0.05-0.01-0.12-0.09-0.16
	C3.58,13.78,3.51,13.79,3.48,13.83z M4.79,15.27c-0.06,0.05-0.04,0.17,0.05,0.25c0.09,0.09,0.21,0.1,0.26,0.04
	c0.05-0.05,0.03-0.17-0.05-0.25C4.96,15.21,4.84,15.2,4.79,15.27z M4.33,14.67c-0.06,0.04-0.06,0.15,0,0.24
	C4.4,15,4.5,15.04,4.56,15c0.06-0.05,0.06-0.16,0-0.25C4.5,14.66,4.4,14.62,4.33,14.67z"/>
</svg>
