<?xml version="1.0" encoding="utf-8"?>
<!-- Generator: Adobe Illustrator 24.0.2, SVG Export Plug-In . SVG Version: 6.00 Build 0)  -->
<svg version="1.1" id="Layer_1" xmlns="http://www.w3.org/2000/svg" xmlns:xlink="http://www.w3.org/1999/xlink" x="0px" y="0px"
	 viewBox="0 0 20 20" style="enable-background:new 0 0 20 20;" xml:space="preserve">
<style type="text/css">
	.st0{fill-rule:evenodd;clip-rule:evenodd;fill:#21609B;}
</style>
<g>
	<path class="st0" d="M19.14,14.6l-0.09,0.22c-1.46,2.85-4.05,4.6-7.75,4.67c-1.73,0.04-3.38-0.41-4.45-0.89
		c-2.32-1.04-4.27-2.98-5.34-5.04C-0.01,10.6-0.29,6.48,2.89,3.4c0.05,0-0.39,0.67-0.34,0.67L2.47,4.36
		C0.17,11.53,7.23,17.68,14.1,16.98C15.75,16.81,17.85,15.9,19.14,14.6L19.14,14.6L19.14,14.6z M19.14,14.6L19.14,14.6L19.14,14.6
		L19.14,14.6z"/>
	<path class="st0" d="M14.99,11.64c1.73,0.01,3.53-0.8,4.6-1.93c-0.93,2.37-3.64,3.9-7.27,3.41c-3.04-0.41-5.93-3.46-6.23-6.53
		C5.87,4.36,6.65,3.03,7.93,1.41c-0.44,0.84-0.61,1.5-0.65,1.91C6.79,8.15,11.13,11.61,14.99,11.64L14.99,11.64L14.99,11.64z
		 M14.99,11.64L14.99,11.64L14.99,11.64L14.99,11.64z"/>
	<path class="st0" d="M19.42,5.65c-0.27,0.62-1.81,1.78-2.5,1.92c-2.7,0.58-4.43-0.71-5.34-2.16c-0.13-0.22-0.38-0.81-0.43-0.96
		c-0.35-1.2-0.19-3,0.86-3.94c-0.32,0.89-0.36,1.92-0.2,2.6c0.1,0.41,0.41,1.12,0.71,1.56c0.56,0.81,0.91,1.01,1.63,1.44
		c0.32,0.19,0.67,0.35,0.82,0.39C15.66,6.69,17.1,7.22,19.42,5.65L19.42,5.65L19.42,5.65z M19.42,5.65L19.42,5.65L19.42,5.65
		L19.42,5.65z"/>
</g>
</svg>
