<?xml version="1.0" encoding="utf-8"?>
<!-- Generator: Adobe Illustrator 24.0.2, SVG Export Plug-In . SVG Version: 6.00 Build 0)  -->
<svg version="1.1" id="Layer_1" xmlns="http://www.w3.org/2000/svg" xmlns:xlink="http://www.w3.org/1999/xlink" x="0px" y="0px"
	 viewBox="0 0 20 20" style="enable-background:new 0 0 20 20;" xml:space="preserve">
<style type="text/css">
	.st0{fill:#E76F00;}
	.st1{fill:#5382A1;}
</style>
<g>
	<path class="st0" d="M10.03,5.28c4.12-3.2,2-5.28,2-5.28c0.31,3.3-3.4,4.08-4.4,6.36c-0.68,1.55,0.47,2.91,2.39,4.62
		c-0.17-0.38-0.43-0.75-0.7-1.12C8.42,8.58,7.48,7.26,10.03,5.28z"/>
	<path class="st0" d="M10.69,11.67c0,0,1.24-1,0.26-2.11c-3.33-3.77,3.64-5.48,3.64-5.48c-4.25,2.05-3.62,3.26-2.55,4.74
		C13.18,10.41,10.69,11.67,10.69,11.67z"/>
	<path class="st1" d="M14.34,14.65c3.82-1.95,2.05-3.82,0.82-3.57c-0.3,0.06-0.44,0.12-0.44,0.12s0.11-0.17,0.33-0.25
		c2.44-0.84,4.31,2.48-0.79,3.8C14.26,14.75,14.32,14.7,14.34,14.65z"/>
	<path class="st1" d="M6.4,12.19c-2.39-0.31,1.31-1.18,1.31-1.18s-1.44-0.1-3.2,0.74c-2.09,0.99,5.16,1.44,8.92,0.47
		c0.39-0.26,0.93-0.49,0.93-0.49s-1.54,0.27-3.07,0.4C9.41,12.29,7.4,12.32,6.4,12.19z"/>
	<path class="st1" d="M7.3,14.05c-1.33-0.14-0.46-0.77-0.46-0.77c-3.45,1.12,1.92,2.4,6.73,1.02c-0.51-0.18-0.84-0.5-0.84-0.5
		C10.39,14.24,9.03,14.22,7.3,14.05z"/>
	<path class="st1" d="M7.88,16.06c-1.33-0.15-0.55-0.59-0.55-0.59c-3.13,0.86,1.9,2.63,5.88,0.96c-0.65-0.25-1.12-0.54-1.12-0.54
		C10.32,16.22,9.5,16.24,7.88,16.06z"/>
	<path class="st1" d="M16.21,17.09c0,0,0.58,0.47-0.63,0.83c-2.3,0.68-9.57,0.89-11.58,0.03c-0.73-0.31,0.64-0.74,1.06-0.83
		c0.45-0.1,0.7-0.08,0.7-0.08c-0.81-0.56-5.22,1.1-2.24,1.57C11.64,19.9,18.32,18.02,16.21,17.09z"/>
	<path class="st1" d="M17.5,18.1c-0.13,1.7-5.76,2.06-9.42,1.83c-2.39-0.15-2.87-0.53-2.88-0.53c2.29,0.37,6.14,0.44,9.27-0.14
		C17.24,18.75,17.5,18.1,17.5,18.1z"/>
</g>
</svg>
