<?xml version="1.0" encoding="utf-8"?>
<!-- Generator: Adobe Illustrator 24.0.2, SVG Export Plug-In . SVG Version: 6.00 Build 0)  -->
<svg version="1.1" id="Layer_1" xmlns="http://www.w3.org/2000/svg" xmlns:xlink="http://www.w3.org/1999/xlink" x="0px" y="0px"
	 viewBox="0 0 16 16" style="enable-background:new 0 0 16 16;" xml:space="preserve">
<style type="text/css">
	.st0{fill:#7B7FB5;}
</style>
<path class="st0" d="M8,4.21c4.28,0,7.58,1.8,7.58,3.79s-3.3,3.79-7.58,3.79c-4.28,0-7.58-1.81-7.58-3.79S3.72,4.21,8,4.21z M8,3.79
	C3.58,3.79,0,5.68,0,8s3.58,4.21,8,4.21s8-1.88,8-4.21S12.42,3.79,8,3.79z M5.45,7.66C5.26,8.68,4.56,8.57,3.7,8.57l0.34-1.76
	C4.99,6.81,5.64,6.7,5.45,7.66z M2.43,10.36h0.92l0.22-1.12c1.03,0,1.66,0.07,2.25-0.48c0.65-0.6,0.82-1.67,0.36-2.2
	C5.94,6.28,5.55,6.14,5.02,6.14H3.25L2.43,10.36z M7.08,5.02h0.91L7.77,6.14c0.79,0,1.52-0.06,1.87,0.27
	c0.37,0.34,0.19,0.77-0.21,2.83H8.51c0.38-1.99,0.46-2.15,0.32-2.3C8.69,6.79,8.39,6.82,7.64,6.82L7.17,9.23H6.26L7.08,5.02z
	 M12.63,7.66c-0.2,1.03-0.92,0.91-1.75,0.91l0.34-1.76C12.17,6.81,12.81,6.7,12.63,7.66z M9.61,10.36h0.92l0.22-1.12
	c1.08,0,1.68,0.06,2.26-0.48c0.65-0.6,0.82-1.67,0.36-2.2c-0.24-0.28-0.63-0.42-1.16-0.42h-1.77L9.61,10.36z"/>
</svg>
