<?xml version="1.0" encoding="utf-8"?>
<!-- Generator: Adobe Illustrator 24.0.2, SVG Export Plug-In . SVG Version: 6.00 Build 0)  -->
<svg version="1.1" id="Layer_1" xmlns="http://www.w3.org/2000/svg" xmlns:xlink="http://www.w3.org/1999/xlink" x="0px" y="0px"
	 viewBox="0 0 20 20" style="enable-background:new 0 0 20 20;" xml:space="preserve">
<style type="text/css">
	.st0{fill:#68D6FC;}
</style>
<path class="st0" d="M16.34,6.92c-0.21-0.07-0.42-0.14-0.63-0.2c0.04-0.14,0.07-0.29,0.1-0.43c0.48-2.33,0.16-4.2-0.9-4.82
	c-1.03-0.59-2.7,0.02-4.4,1.5c-0.17,0.14-0.33,0.3-0.49,0.45c-0.11-0.1-0.21-0.2-0.32-0.3C7.91,1.54,6.13,0.88,5.06,1.5
	c-1.02,0.59-1.33,2.36-0.9,4.56c0.04,0.22,0.09,0.43,0.14,0.65c-0.25,0.07-0.5,0.15-0.73,0.23C1.5,7.66,0,8.8,0,9.98
	c0,1.22,1.59,2.44,3.76,3.18c0.18,0.06,0.35,0.12,0.53,0.17c-0.06,0.23-0.11,0.46-0.16,0.7c-0.41,2.17-0.09,3.89,0.93,4.48
	c1.05,0.61,2.83-0.02,4.55-1.53c0.14-0.12,0.27-0.25,0.41-0.38c0.17,0.17,0.35,0.33,0.53,0.48c1.67,1.44,3.32,2.02,4.34,1.43
	c1.05-0.61,1.4-2.46,0.95-4.71c-0.04-0.17-0.07-0.35-0.12-0.53c0.13-0.04,0.25-0.07,0.37-0.11C18.37,12.43,20,11.22,20,9.98
	C20,8.8,18.46,7.65,16.34,6.92z M11.05,3.6c1.45-1.27,2.81-1.76,3.43-1.41c0.66,0.38,0.91,1.91,0.5,3.92
	c-0.03,0.13-0.05,0.26-0.09,0.39c-0.87-0.2-1.75-0.34-2.63-0.41c-0.51-0.73-1.06-1.42-1.66-2.07C10.75,3.88,10.89,3.74,11.05,3.6z
	 M6.53,12.01c0.2,0.34,0.4,0.68,0.62,1.01c-0.61-0.07-1.21-0.16-1.81-0.29c0.17-0.56,0.39-1.14,0.64-1.74
	C6.15,11.33,6.34,11.67,6.53,12.01z M5.35,7.31c0.56-0.12,1.16-0.23,1.78-0.3C6.92,7.33,6.72,7.66,6.53,8
	C6.34,8.33,6.15,8.67,5.97,9.01C5.73,8.43,5.52,7.86,5.35,7.31z M6.42,10c0.26-0.54,0.54-1.07,0.84-1.59
	C7.55,7.9,7.87,7.39,8.21,6.9C8.79,6.85,9.39,6.83,10,6.83s1.21,0.02,1.79,0.07c0.33,0.49,0.65,1,0.95,1.51
	c0.3,0.52,0.58,1.04,0.85,1.58c-0.26,0.54-0.54,1.07-0.84,1.59c-0.3,0.52-0.61,1.02-0.95,1.52c-0.58,0.04-1.19,0.06-1.8,0.06
	c-0.61,0-1.21-0.02-1.78-0.05c-0.34-0.5-0.66-1-0.96-1.52S6.68,10.54,6.42,10z M13.47,12c0.2-0.34,0.39-0.69,0.57-1.04
	c0.25,0.57,0.47,1.14,0.66,1.73c-0.61,0.14-1.22,0.24-1.84,0.31C13.08,12.67,13.28,12.34,13.47,12z M14.04,9.01
	c-0.18-0.34-0.37-0.69-0.57-1.02c-0.19-0.33-0.39-0.66-0.6-0.98c0.63,0.08,1.23,0.18,1.79,0.31C14.48,7.9,14.27,8.46,14.04,9.01z
	 M10.01,4.62c0.41,0.45,0.8,0.91,1.16,1.4c-0.77-0.04-1.55-0.04-2.32,0C9.22,5.51,9.62,5.05,10.01,4.62z M5.48,2.23
	c0.66-0.38,2.11,0.16,3.65,1.52c0.1,0.09,0.2,0.18,0.3,0.27C8.82,4.67,8.26,5.37,7.75,6.1C6.86,6.17,5.99,6.31,5.12,6.5
	C5.07,6.3,5.03,6.1,4.98,5.9C4.62,4.01,4.86,2.58,5.48,2.23z M4.52,12.52c-0.16-0.05-0.32-0.1-0.48-0.15
	c-0.83-0.26-1.78-0.68-2.46-1.22c-0.39-0.27-0.66-0.7-0.73-1.17c0-0.71,1.23-1.63,3.02-2.25C4.08,7.66,4.3,7.58,4.53,7.52
	C4.8,8.37,5.12,9.2,5.49,10C5.11,10.82,4.79,11.66,4.52,12.52z M9.07,16.35c-0.64,0.59-1.39,1.06-2.2,1.38
	c-0.43,0.21-0.93,0.23-1.38,0.05c-0.62-0.36-0.88-1.74-0.53-3.59c0.04-0.22,0.09-0.44,0.14-0.65c0.88,0.19,1.76,0.32,2.65,0.38
	c0.52,0.73,1.08,1.43,1.69,2.09C9.32,16.12,9.2,16.24,9.07,16.35z M10.03,15.4c-0.4-0.43-0.8-0.91-1.18-1.42
	C9.22,14,9.61,14.01,10,14.01c0.4,0,0.8-0.01,1.19-0.03C10.83,14.48,10.44,14.95,10.03,15.4z M15.14,16.57
	c-0.04,0.48-0.27,0.92-0.64,1.22c-0.62,0.36-1.95-0.11-3.38-1.34c-0.16-0.14-0.33-0.29-0.5-0.45c0.6-0.66,1.15-1.36,1.65-2.09
	c0.89-0.07,1.79-0.21,2.66-0.41c0.04,0.16,0.07,0.32,0.11,0.48C15.23,14.83,15.26,15.71,15.14,16.57z M15.85,12.37
	c-0.11,0.04-0.22,0.07-0.33,0.1c-0.27-0.85-0.61-1.68-1-2.49c0.38-0.8,0.69-1.62,0.96-2.46c0.2,0.06,0.4,0.12,0.59,0.18
	c1.82,0.63,3.1,1.55,3.1,2.27C19.16,10.74,17.8,11.73,15.85,12.37z M10,11.79c0.99,0,1.79-0.8,1.79-1.79S10.99,8.21,10,8.21
	S8.21,9.01,8.21,10S9.01,11.79,10,11.79z"/>
</svg>
