<?xml version="1.0" encoding="utf-8"?>
<!-- Generator: Adobe Illustrator 24.0.2, SVG Export Plug-In . SVG Version: 6.00 Build 0)  -->
<svg version="1.1" id="Layer_1" xmlns="http://www.w3.org/2000/svg" xmlns:xlink="http://www.w3.org/1999/xlink" x="0px" y="0px"
	 viewBox="0 0 20 20" style="enable-background:new 0 0 20 20;" xml:space="preserve">
<style type="text/css">
	.st0{fill:#CD6799;}
</style>
<path class="st0" d="M10.12,11.94c-0.34,0.16-0.72,0.36-1.47,0.78c-0.29,0.16-0.58,0.32-0.86,0.47c-0.02-0.02-0.04-0.04-0.06-0.06
	c-1.49-1.59-4.25-2.72-4.13-4.86c0.04-0.78,0.31-2.83,5.3-5.31c4.11-2.02,7.37-1.46,7.94-0.22c0.81,1.77-1.75,5.07-5.99,5.55
	C9.89,8.48,8.9,8.23,8.15,7.61C7.93,7.36,7.9,7.35,7.81,7.4c-0.14,0.07-0.05,0.29,0,0.42c0.33,0.59,0.88,1.03,1.53,1.2
	c1.67,0.36,3.41,0.19,4.97-0.49c2.57-0.99,4.58-3.76,3.99-6.08c-0.59-2.35-4.49-3.13-8.18-1.81C7.81,1.41,5.68,2.64,3.84,4.24
	C1.81,6.15,1.48,7.8,1.62,8.49c0.47,2.46,3.86,4.06,5.22,5.24c-0.07,0.04-0.13,0.07-0.19,0.1c-0.68,0.34-3.26,1.69-3.91,3.12
	c-0.73,1.62,0.12,2.78,0.68,2.93c1.73,0.41,3.54-0.32,4.49-1.82c0.8-1.23,0.95-2.78,0.4-4.15c0.16-0.13,0.33-0.24,0.51-0.34
	c0.35-0.2,0.68-0.41,0.97-0.56l0,0c1-0.47,2.09-0.71,3.2-0.71c2.32,0.27,2.78,1.72,2.69,2.33c-0.08,0.44-0.35,0.82-0.74,1.04
	c-0.16,0.1-0.21,0.14-0.2,0.21c0.02,0.11,0.1,0.1,0.23,0.08c0.71-0.23,1.22-0.87,1.26-1.61c0.07-1.43-1.29-3-3.71-2.98
	c-0.72,0-1.44,0.14-2.11,0.42C10.32,11.84,10.22,11.89,10.12,11.94L10.12,11.94z M6.67,17.55c-0.77,0.84-1.84,1.16-2.31,0.89
	c-0.5-0.29-0.3-1.53,0.64-2.41c0.56-0.5,1.17-0.96,1.81-1.35C6.93,14.6,7.1,14.5,7.3,14.38c0.03-0.02,0.05-0.03,0.05-0.03l0.12-0.07
	C7.81,15.43,7.51,16.68,6.67,17.55L6.67,17.55z"/>
</svg>
