<?xml version="1.0" encoding="utf-8"?>
<!-- Generator: Adobe Illustrator 24.0.2, SVG Export Plug-In . SVG Version: 6.00 Build 0)  -->
<svg version="1.1" id="Layer_1" xmlns="http://www.w3.org/2000/svg" xmlns:xlink="http://www.w3.org/1999/xlink" x="0px" y="0px"
	 viewBox="0 0 20 20" style="enable-background:new 0 0 20 20;" xml:space="preserve">
<style type="text/css">
	.st0{fill:#849FCA;}
</style>
<path class="st0" d="M19.91,2.63c-0.24,0.07-0.47,0.17-0.66,0.2C12.4,4.17,5.86,5.77,0,8.09v3.8c0.31-0.02,5.22-0.53,5.96-0.59
	c1.57-0.13,6.86-0.71,8.92-0.57c0.42,0.05,1.04,0.14,1.1,0.54c0.04,0.21-0.15,0.4-0.27,0.51c-0.03,0.04-0.06,0.08-0.11,0.1
	c-0.98,0.66-2.12,1.2-3.34,1.55l-0.09,0.02c-3.44,1.13-7.56,2.08-11.78,2.68L0,16.18v1.19h0.44c4.33-0.69,8.43-1.78,12.4-2.81
	c2.45-0.64,4.89-1.58,7.16-2.42V7.79c-0.42,0.06-2.52,0.35-8.34,0.92C6.95,9.16,5.65,9.03,5.29,8.92C5.27,8.91,5.26,8.9,5.25,8.89
	l0,0C5.2,8.87,5.16,8.83,5.14,8.78l0,0C5,8.64,5.12,8.38,5.24,8.29c0.03-0.05,0.07-0.1,0.12-0.12l0,0c0.43-0.34,0.92-0.63,1.46-0.84
	l0.04-0.01c0.94-0.42,2.09-0.85,3.28-1.19l0.2-0.05c0.61-0.18,1.21-0.36,1.83-0.52c2.06-0.59,4.71-1.18,7.4-1.62L20,3.87V2.63
	L19.91,2.63z"/>
</svg>
