<?xml version="1.0" encoding="utf-8"?>
<!-- Generator: Adobe Illustrator 24.0.2, SVG Export Plug-In . SVG Version: 6.00 Build 0)  -->
<svg version="1.1" id="Layer_1" xmlns="http://www.w3.org/2000/svg" xmlns:xlink="http://www.w3.org/1999/xlink" x="0px" y="0px"
	 viewBox="0 0 20 20" style="enable-background:new 0 0 20 20;" xml:space="preserve">
<path d="M10.75,10.75L9.25,9.25l-2.87,4.38L10.75,10.75z M10,0C4.48,0,0,4.48,0,10s4.48,10,10,10s10-4.48,10-10S15.52,0,10,0z
	 M16.28,7.05l0.6-0.25c0.04-0.02,0.08-0.02,0.13-0.02s0.08,0.01,0.13,0.02c0.04,0.02,0.07,0.04,0.1,0.07
	c0.03,0.03,0.05,0.06,0.07,0.1c0.02,0.04,0.02,0.08,0.02,0.13c0,0.04-0.01,0.08-0.02,0.12c-0.02,0.04-0.04,0.08-0.07,0.1
	c-0.03,0.03-0.06,0.05-0.1,0.07l-0.6,0.25c-0.08,0.03-0.17,0.03-0.25,0c-0.08-0.03-0.14-0.1-0.17-0.17c-0.03-0.08-0.03-0.17,0-0.25
	C16.15,7.15,16.21,7.08,16.28,7.05L16.28,7.05z M12.35,3.47l0.25-0.6c0.03-0.08,0.1-0.14,0.17-0.17c0.08-0.03,0.17-0.03,0.25,0
	c0.08,0.03,0.14,0.1,0.17,0.17c0.03,0.08,0.03,0.17,0,0.25l-0.25,0.6c-0.03,0.08-0.1,0.14-0.17,0.17c-0.08,0.03-0.17,0.03-0.25,0
	c-0.04-0.02-0.08-0.04-0.1-0.07c-0.03-0.03-0.05-0.06-0.07-0.1c-0.02-0.04-0.02-0.08-0.02-0.13C12.33,3.54,12.34,3.5,12.35,3.47
	L12.35,3.47z M10,2.1c0.08,0,0.17,0.03,0.23,0.09s0.09,0.15,0.09,0.23v0.65c0,0.08-0.03,0.17-0.09,0.23S10.09,3.39,10,3.39
	S9.83,3.35,9.77,3.29S9.68,3.15,9.68,3.06V2.42c0-0.08,0.03-0.17,0.09-0.23S9.92,2.1,10,2.1z M6.98,2.7
	C7.02,2.68,7.06,2.67,7.1,2.67c0.04,0,0.08,0.01,0.12,0.02c0.04,0.02,0.08,0.04,0.1,0.07c0.03,0.03,0.05,0.06,0.07,0.1l0.25,0.6
	c0.02,0.04,0.03,0.08,0.03,0.13c0,0.04-0.01,0.08-0.02,0.12c-0.02,0.04-0.04,0.08-0.07,0.1S7.52,3.88,7.48,3.9
	C7.44,3.91,7.4,3.92,7.35,3.92c-0.04,0-0.08-0.01-0.13-0.02c-0.04-0.02-0.08-0.04-0.1-0.07C7.09,3.79,7.07,3.75,7.05,3.71l-0.25-0.6
	c-0.03-0.08-0.03-0.17,0-0.25C6.84,2.79,6.9,2.73,6.98,2.7L6.98,2.7z M4.41,4.41c0.06-0.06,0.14-0.09,0.23-0.09
	c0.09,0,0.17,0.03,0.23,0.09l0.45,0.46c0.06,0.06,0.09,0.14,0.09,0.23c0,0.08-0.03,0.17-0.09,0.23S5.18,5.41,5.09,5.41
	C5,5.41,4.92,5.38,4.86,5.32L4.41,4.86C4.35,4.8,4.31,4.72,4.31,4.64S4.35,4.47,4.41,4.41L4.41,4.41L4.41,4.41z M2.1,10
	c0-0.08,0.03-0.17,0.09-0.23s0.15-0.09,0.23-0.09h0.65c0.08,0,0.17,0.03,0.23,0.09S3.39,9.91,3.39,10s-0.03,0.17-0.09,0.23
	s-0.14,0.09-0.23,0.09H2.42c-0.08,0-0.17-0.03-0.23-0.09S2.1,10.08,2.1,10z M3.72,12.95l-0.6,0.25C3.08,13.21,3.04,13.22,3,13.22
	c-0.04,0-0.08-0.01-0.13-0.02c-0.04-0.02-0.08-0.04-0.1-0.07c-0.03-0.03-0.05-0.06-0.07-0.1c-0.02-0.04-0.02-0.08-0.02-0.13
	c0-0.04,0.01-0.08,0.02-0.13c0.02-0.04,0.04-0.08,0.07-0.1c0.03-0.03,0.06-0.05,0.1-0.07l0.6-0.25c0.08-0.03,0.17-0.03,0.25,0
	c0.08,0.03,0.14,0.1,0.17,0.17c0.03,0.08,0.03,0.17,0,0.25C3.85,12.85,3.79,12.92,3.72,12.95L3.72,12.95z M3.89,7.47
	c-0.02,0.04-0.04,0.08-0.07,0.1C3.79,7.6,3.76,7.63,3.72,7.64C3.68,7.66,3.64,7.67,3.59,7.67c-0.04,0-0.08-0.01-0.13-0.02L2.87,7.4
	C2.79,7.36,2.73,7.3,2.7,7.22c-0.03-0.08-0.03-0.17,0-0.25C2.73,6.9,2.79,6.83,2.87,6.8c0.08-0.03,0.17-0.03,0.25,0l0.6,0.25
	c0.08,0.03,0.14,0.1,0.17,0.17C3.92,7.3,3.92,7.39,3.89,7.47L3.89,7.47L3.89,7.47z M7.65,16.53l-0.25,0.6
	c-0.02,0.04-0.04,0.08-0.07,0.1c-0.03,0.03-0.06,0.05-0.1,0.07c-0.04,0.02-0.08,0.02-0.12,0.02c-0.04,0-0.08-0.01-0.13-0.02
	c-0.04-0.02-0.08-0.04-0.1-0.07c-0.03-0.03-0.05-0.06-0.07-0.1C6.79,17.09,6.78,17.05,6.78,17s0.01-0.08,0.02-0.13l0.25-0.6
	c0.02-0.04,0.04-0.08,0.07-0.11c0.03-0.03,0.06-0.06,0.1-0.07c0.04-0.02,0.08-0.02,0.12-0.02c0.04,0,0.08,0.01,0.12,0.02
	c0.04,0.02,0.08,0.04,0.1,0.07c0.03,0.03,0.05,0.07,0.07,0.1c0.02,0.04,0.02,0.08,0.02,0.12C7.67,16.45,7.66,16.49,7.65,16.53
	L7.65,16.53z M10.32,17.58c0,0.08-0.03,0.17-0.09,0.23S10.09,17.9,10,17.9s-0.17-0.03-0.23-0.09s-0.09-0.14-0.09-0.23v-0.65
	c0-0.08,0.03-0.17,0.09-0.23s0.14-0.09,0.23-0.09s0.17,0.03,0.23,0.09s0.09,0.14,0.09,0.23V17.58z M13.02,17.3
	c-0.04,0.02-0.08,0.02-0.13,0.02c-0.04,0-0.08-0.01-0.13-0.02c-0.04-0.02-0.08-0.04-0.1-0.07c-0.03-0.03-0.05-0.06-0.07-0.1
	l-0.25-0.6c-0.03-0.08-0.03-0.17,0-0.25c0.03-0.08,0.1-0.14,0.17-0.17c0.08-0.03,0.17-0.03,0.25,0c0.08,0.03,0.14,0.1,0.17,0.17
	l0.25,0.6c0.03,0.08,0.03,0.17,0,0.25C13.16,17.21,13.1,17.27,13.02,17.3L13.02,17.3z M15.59,15.59c-0.06,0.06-0.14,0.09-0.23,0.09
	c-0.09,0-0.17-0.03-0.23-0.09l-0.45-0.46c-0.06-0.06-0.09-0.14-0.09-0.23c0-0.08,0.03-0.17,0.09-0.23s0.14-0.09,0.23-0.09
	c0.09,0,0.17,0.03,0.23,0.09l0.46,0.46c0.06,0.06,0.09,0.14,0.09,0.23S15.65,15.53,15.59,15.59L15.59,15.59L15.59,15.59z
	 M11.22,11.22l-7.09,4.66l4.66-7.09l7.09-4.66L11.22,11.22z M17.3,13.02c-0.03,0.08-0.1,0.14-0.17,0.17c-0.08,0.03-0.17,0.03-0.25,0
	l-0.6-0.25c-0.08-0.03-0.14-0.1-0.17-0.17c-0.03-0.08-0.03-0.17,0-0.25c0.02-0.04,0.04-0.08,0.07-0.1c0.03-0.03,0.06-0.05,0.1-0.07
	c0.04-0.02,0.08-0.02,0.13-0.02c0.04,0,0.08,0.01,0.13,0.02l0.6,0.25c0.08,0.03,0.14,0.1,0.17,0.17
	C17.34,12.85,17.34,12.95,17.3,13.02L17.3,13.02z M17.58,10.32h-0.65c-0.08,0-0.17-0.03-0.23-0.09s-0.09-0.14-0.09-0.23
	s0.03-0.17,0.09-0.23s0.14-0.09,0.23-0.09h0.65c0.08,0,0.17,0.03,0.23,0.09S17.9,9.91,17.9,10s-0.03,0.17-0.09,0.23
	S17.67,10.32,17.58,10.32z"/>
</svg>
