<?xml version="1.0" encoding="utf-8"?>
<!-- Generator: Adobe Illustrator 24.0.2, SVG Export Plug-In . SVG Version: 6.00 Build 0)  -->
<svg version="1.1" id="Layer_1" xmlns="http://www.w3.org/2000/svg" xmlns:xlink="http://www.w3.org/1999/xlink" x="0px" y="0px"
	 viewBox="0 0 20 20" style="enable-background:new 0 0 20 20;" xml:space="preserve">
<style type="text/css">
	.st0{fill:#4167D9;}
</style>
<path class="st0" d="M18.8,12.71c1.16,1.17,1.53,2.26,1.09,3.25c-0.43,0.99-0.94,1.78-1.51,2.35c-0.54,0.54-1.33,1.04-2.38,1.52
	c-1.05,0.48-2.29-0.01-3.71-1.46L10,16.13l-2.68,2.59c-1.18,1.16-2.27,1.52-3.28,1.09c-1.01-0.43-1.8-0.93-2.37-1.5
	c-0.52-0.54-1.02-1.33-1.48-2.37c-0.47-1.05,0.03-2.28,1.48-3.72l1.77-1.84c0.07-0.07,0.14-0.13,0.21-0.19
	c0.06-0.05,0.12-0.11,0.18-0.17L1.2,7.29C0.04,6.12-0.32,5.03,0.11,4.03c0.43-1,0.94-1.78,1.51-2.33C2.16,1.16,2.95,0.66,4,0.19
	C5.05-0.27,6.29,0.2,7.71,1.62L10,3.85l2.71-2.57c1.16-1.17,2.25-1.54,3.25-1.1c1.01,0.44,1.8,0.95,2.37,1.52
	c0.52,0.54,1.01,1.33,1.48,2.37c0.47,1.05-0.02,2.28-1.46,3.72l-1.8,1.81l-0.21,0.21c-0.06,0.07-0.13,0.13-0.21,0.18L18.8,12.71
	L18.8,12.71z M13.07,1.59l-2.71,2.62l1.38,1.35C12,5.8,12.26,5.99,12.5,6.14c0.24,0.15,0.5,0.22,0.76,0.22
	c0.23,0,0.47-0.07,0.73-0.2c0.26-0.13,0.55-0.35,0.86-0.66c0.03-0.02,0.22-0.2,0.56-0.54l0.51-0.52c0.56-0.55,0.9-1.14,1.04-1.76
	C17.09,2.06,16.8,1.5,16.09,1c-0.52-0.35-1.05-0.43-1.59-0.25C13.97,0.93,13.48,1.21,13.07,1.59z M6.93,18.39l2.71-2.59l-1.38-1.35
	c-0.23-0.22-0.48-0.41-0.76-0.58c-0.23-0.14-0.49-0.22-0.76-0.22c-0.23,0-0.47,0.06-0.73,0.19c-0.26,0.13-0.55,0.34-0.86,0.64
	c-0.04,0.03-0.22,0.22-0.56,0.57l-0.51,0.52c-0.56,0.55-0.9,1.14-1.04,1.76c-0.14,0.62,0.16,1.18,0.89,1.68
	c0.5,0.35,1.02,0.43,1.56,0.25C6.03,19.07,6.52,18.78,6.93,18.39L6.93,18.39z M15.62,15.9c0.56,0.55,1.14,0.9,1.76,1.05
	c0.62,0.15,1.18-0.14,1.7-0.87c0.33-0.5,0.41-1.02,0.23-1.56c-0.17-0.53-0.47-1.02-0.86-1.43l-2.73-2.77
	c-0.99,0.71-1.97,0.98-2.93,0.83c-0.96-0.16-1.84-0.64-2.64-1.45L4.38,4.08C3.82,3.54,3.24,3.2,2.62,3.04
	C2.01,2.89,1.44,3.17,0.92,3.9C0.59,4.42,0.51,4.94,0.68,5.48c0.17,0.54,0.46,1,0.86,1.4l2.73,2.8C5.26,8.97,6.24,8.69,7.2,8.85
	C8.17,9,9.05,9.48,9.84,10.27L15.62,15.9L15.62,15.9z"/>
</svg>
